<?xml version="1.0" encoding="utf-8"?>
<!-- Generator: Adobe Illustrator 24.1.2, SVG Export Plug-In . SVG Version: 6.00 Build 0)  -->
<svg version="1.1" id="Layer_1" xmlns="http://www.w3.org/2000/svg" xmlns:xlink="http://www.w3.org/1999/xlink" x="0px" y="0px"
	 viewBox="0 0 1277.6 640.3" style="enable-background:new 0 0 1277.6 640.3;" xml:space="preserve">
<style type="text/css">
	.st0{fill:#545564;}
</style>
<g>
	<path class="st0" d="M422.7,162.8v328.9H258.2H93.7V162.8H422.7 M446.5,139H69.8v376.7h188.3h188.3V139L446.5,139z"/>
	<g>
		<path class="st0" d="M478.9,564.5H21V106.6c0-5.6,3.4-10.6,8.5-12.8l2.2-0.9l3.1-0.1c3.7,0,7.2,1.4,9.8,4.1l97.1,97.1v249.8h249.8
			l97.1,97.1c4,4,5.2,9.9,3,15.1C489.5,561.1,484.5,564.5,478.9,564.5z M44.9,540.6h409.8l-73-73H117.8V203.8l-73-73V540.6z"/>
	</g>
	<g>
		<g>
			<path class="st0" d="M537.8,229.4h23.4v183.9h-23.4V229.4z"/>
			<path class="st0" d="M611.5,229.4H664c41.2,0,69,13.9,69,54.2c0,38.7-27.7,56.8-67.9,56.8h-30.2v73h-23.4V229.4z M662.2,321.4
				c32.2,0,47.5-11.7,47.5-37.8c0-26.5-16.3-35.2-48.6-35.2h-26.2v73H662.2z"/>
			<path class="st0" d="M770.1,229.4h54.6c37.4,0,63.3,12.7,63.3,45c0,18.2-9.7,34.3-26.9,39.9v1.1c22,4.3,37.4,18.9,37.4,44
				c0,36.1-28.6,53.8-69.6,53.8h-58.8V229.4z M820.7,307.7c31.3,0,44.2-11.5,44.2-30.2c0-21.5-14.7-29.5-43.2-29.5h-28.3v59.7H820.7
				z M825.5,394.8c31.5,0,50-11.3,50-36.1c0-22.7-17.8-33-50-33h-32v69.1H825.5z"/>
			<path class="st0" d="M972.7,229.4h26.4l62.2,183.9h-24.8l-32.1-102.7c-6.6-20.6-12.5-40.8-18.4-62h-1.1
				c-5.7,21.3-11.6,41.4-18.2,62l-32.4,102.7h-23.8L972.7,229.4z M943.2,338.7h84.7v18.7h-84.7V338.7z"/>
			<path class="st0" d="M1076.7,321.6c0-59.3,35-95.5,81.6-95.5c22.3,0,39.8,10.9,50.6,22.7l-12.8,15.2
				c-9.7-10.3-21.8-17.3-37.4-17.3c-34.8,0-57.9,28.5-57.9,74.3c0,46.2,22.1,75.2,56.9,75.2c17.6,0,30.9-7.6,42.6-20.7l12.8,14.7
				c-14.5,16.9-32.5,26.6-56.4,26.6C1111,416.7,1076.7,381.3,1076.7,321.6z"/>
		</g>
	</g>
</g>
</svg>
